/* XPM */
static char *cube6[] = {
/* columns rows colors chars-per-pixel */
"32 32 144 2 ",
"   c #010101",
".  c #0B0B01",
"X  c #0D0D0C",
"o  c #141401",
"O  c #1C1C02",
"+  c #0E0E10",
"@  c #121214",
"#  c #1B1B17",
"$  c #1C1C1B",
"%  c #242402",
"&  c #2C2C01",
"*  c #333301",
"=  c #3C3C01",
"-  c #23231D",
";  c #1B1B23",
":  c #232323",
">  c #2D2D28",
",  c #393921",
"<  c #373736",
"1  c gray22",
"2  c #434300",
"3  c #4D4D01",
"4  c #545400",
"5  c #5A5A00",
"6  c #636300",
"7  c #6B6B01",
"8  c #747400",
"9  c #7A7B00",
"0  c #58582F",
"q  c #54543F",
"w  c #3B3B40",
"e  c #444448",
"r  c #555554",
"t  c #5A5A59",
"y  c #666641",
"u  c #606055",
"i  c #7F7F5F",
"p  c #676767",
"a  c #767676",
"s  c #848400",
"d  c #8B8B00",
"f  c #939300",
"g  c #9B9C00",
"h  c #A2A200",
"j  c #ACAC01",
"k  c #B4B400",
"l  c #BCBC00",
"z  c #C3C300",
"x  c #CACA00",
"c  c #DEDE03",
"v  c #DCDC0B",
"b  c #CDCC16",
"n  c #D2D11E",
"m  c #E3E301",
"M  c #ECED00",
"N  c #E6E509",
"B  c #F6F604",
"V  c #F7F70A",
"C  c #FFFF08",
"Z  c #EFEF1B",
"A  c #F3F211",
"S  c #F4F41E",
"D  c #FFFE1A",
"F  c #CFCE2A",
"G  c #D3D226",
"H  c #D9D927",
"J  c #D7D729",
"K  c #DAD92B",
"L  c #E0DE39",
"P  c #EEED23",
"I  c #FDFD22",
"U  c #FDFD2E",
"Y  c #FBFA32",
"T  c #FCFB3B",
"R  c #909077",
"E  c #F7F541",
"W  c #FCFC45",
"Q  c #F7F649",
"!  c #FFFF4C",
"~  c #ECEB57",
"^  c #FCFA54",
"/  c #F3F15E",
"(  c #FCFA5B",
")  c #EEEC64",
"_  c #EEEC6B",
"`  c #F0EE6D",
"'  c #F8F662",
"]  c #F6F46F",
"[  c #F8F66C",
"{  c #E8E67E",
"}  c #F1EF79",
"|  c #F6F476",
" . c #F5F37B",
".. c #7F7F85",
"X. c gray52",
"o. c gray58",
"O. c #9E9E9D",
"+. c gray63",
"@. c #A6A6A9",
"#. c #ACACAC",
"$. c #B3B3A6",
"%. c #BBBBBC",
"&. c #ECEA89",
"*. c #F4F184",
"=. c #E9E693",
"-. c #EEEB93",
";. c #EAE79D",
":. c #EBE89B",
">. c #F0ED94",
",. c #C0C0AD",
"<. c #DFDBAE",
"1. c #CECEBF",
"2. c #D8D4B0",
"3. c #DEDAB5",
"4. c #D6D3BA",
"5. c #D9D5B9",
"6. c #E0DCAE",
"7. c #E0DDB2",
"8. c #E5E1A3",
"9. c #EAE6A5",
"0. c #EBE8A4",
"q. c #E8E4AF",
"w. c #CECEC7",
"e. c #C7C7CA",
"r. c #CDCBCC",
"t. c #D3CFC7",
"y. c #D2CECB",
"u. c #D5D1C6",
"i. c #DEDAC4",
"p. c #D4D0C8",
"a. c #DAD6CC",
"s. c #CECAD4",
"d. c #CCC8D8",
"f. c #D0CCD4",
"g. c #D0CBD8",
"h. c #D6D5D4",
"j. c #DCDCD6",
"k. c #DCDCDD",
"l. c #E3E3DF",
"z. c #E0E0E4",
"x. c #ECECEB",
"c. c gray96",
"v. c #FBFBF3",
"b. c #FEFEFF",
/* pixels */
"p.p.p.p.p.t.p.p.p.p.p.p.t.f.d.a.h.s.t.t.p.p.p.p.p.p.p.p.p.p.p.p.",
"p.p.p.t.p.p.p.p.p.t.t.d.a.0.) J L } q.h.f.s.p.p.p.p.p.p.p.p.u.p.",
"p.p.p.u.p.p.u.s.f.a.0.) G g 6 = 2 7 j K ` 9.a.g.r.u.u.p.p.p.t.p.",
"p.p.p.u.r.f.a.9._ H h 6 4 5 7 8 7 6 4 3 7 h H ) :.i.f.s.t.p.p.p.",
"p.p.g.a.9._ H j 7 = 4 8 6 2 & 8 & & 3 7 7 2 * 7 h n ~ >.i.f.t.p.",
"p.4._ F h 8 2 & = 9 5 o       2 =       & 8 7 * & = 6 s b Q 5.t.",
"g.) M j 3 % * 4 s %           . 7 .         4 9 2 * & 7 j M { f.",
"d. .g 3 l h 5 7 o               4 &           = 6 6 l j & l 9.s.",
"s.;.x   o 6 x g .               % 5           O x k 2 . O N 3.r.",
"t.3.c % o o % 5 k 9 .             7 .     o s j 2 O o o = S p.t.",
"t.a.S * o * .     7 k 8 .         6 o   8 k 6     O * . 5 T f.u.",
"p.f.T 4 o &           8 k 8       = s j 9         . *   9 ( s.p.",
"p.s.( 9 O O             . 8 k 5 = l f o             & . h } d.u.",
"p.s.*.g O o   t p           . g l * .         a r.: & o x =.s.u.",
"p.r.;.l % O $ b.b.h.:     .   2 7   &       %.b.b.y % & c 7.t.t.",
"p.u.3.c * % 0 b.x.b.x.+       4 9   &     +.b.r.i   O 2 P p.t.t.",
"p.p.p.P 3   - b.j.q b.@.      4 8   &   1 b.R ,.r.  o 5 Y f.p.p.",
"p.p.f.E 6 o   z.b.v.w.p., .   4 9 . & . $.b.x.b.b.$ o 9 ^ d.p.p.",
"p.p.d.' 9 O   #.b.e.b.u % & O 8 s & & % l.b.#.h.k.. O g | s.p.p.",
"p.p.d.*.g %   e b.@ %.x.      4 9 O   ; b.c.  k...o O l >.t.u.p.",
"p.p.t.9.z . &   r.O.a b.r     4 s O   < b.k.O.z.o & O m 6.f.p.p.",
"p.p.t.u.U f % o @ x.b.b.o.    3 s O   < b.b.b.> O & x / t.t.p.p.",
"p.p.t.t.t.^ l = . @ %.b.X.    3 h .   X r.%.# o 3 m  .s.p.p.p.p.",
"p.p.p.p.t.s.[ c 5 .   w +     3 g           o 7 B =.s.p.p.p.p.p.",
"p.p.p.p.p.p.d.=.V 9 O .       3 s     o % % s D <.s.p.p.p.p.p.p.",
"p.p.p.p.p.p.p.s.3.U g % & * o 7 f o * & O h Y p.s.u.p.p.p.p.p.p.",
"p.t.p.p.p.p.p.p.t.t.W l % o O 7 s O o O x ^ t.t.p.p.p.p.p.p.p.p.",
"p.p.p.p.p.p.p.p.p.p.s.[ m 2   6 s   * c [ s.p.p.p.p.p.p.p.p.p.p.",
"p.p.p.p.p.p.p.p.p.p.p.s.=.C 5 4 9 2 B &.d.p.p.p.t.p.p.p.p.p.p.p.",
"p.p.p.p.p.p.p.p.p.p.p.p.s.3.I x x A 8.s.p.p.p.p.p.p.p.p.p.p.p.p.",
"p.p.p.p.p.p.p.p.p.p.p.t.p.t.p.W U 4.s.p.p.p.p.p.p.p.p.p.t.t.p.u.",
"p.p.p.p.p.p.p.p.p.p.p.t.t.u.t.f.t.t.p.p.p.p.p.p.p.p.p.p.t.u.u.u."
};
