/* XPM */
static char *cube1[] = {
/* columns rows colors chars-per-pixel */
"32 32 133 2 ",
"   c #010100",
".  c #0B0B01",
"X  c #0B0B0B",
"o  c #141401",
"O  c #1B1B01",
"+  c #13130E",
"@  c #0F0F14",
"#  c #141415",
"$  c #1D1D1C",
"%  c #232301",
"&  c #2C2C01",
"*  c #302F02",
"=  c #343401",
"-  c #3B3C00",
";  c #1F1F20",
":  c #272724",
">  c #444400",
",  c #474800",
"<  c #4D4D00",
"1  c #545401",
"2  c #5A5A00",
"3  c #636300",
"4  c #6B6C01",
"5  c #737300",
"6  c #7B7B00",
"7  c #434344",
"8  c #454548",
"9  c #4D4D4D",
"0  c #595954",
"q  c #5D5D5C",
"w  c #61615F",
"e  c #666666",
"r  c DimGray",
"t  c #7E7E7E",
"y  c #828200",
"u  c #8B8B00",
"i  c #949400",
"p  c #979800",
"a  c #9C9C00",
"s  c #A2A200",
"d  c #AAAA00",
"f  c #B4B400",
"g  c #BDBD00",
"h  c #BFC000",
"j  c #C2C200",
"k  c #CACA0B",
"l  c #D4D400",
"z  c #DBDB00",
"x  c #DBDB0B",
"c  c #D2D212",
"v  c #D4D41B",
"b  c #D8D71F",
"n  c #D9D91B",
"m  c #E2E200",
"M  c #EBEC00",
"N  c #E2E20A",
"B  c #F1F100",
"V  c #F0F009",
"C  c #EDED10",
"Z  c #EDEC1D",
"A  c #F0F014",
"S  c #F8F811",
"D  c #CDCC23",
"F  c #DBDA24",
"G  c #DFDE30",
"H  c #ECEC25",
"J  c #F3F321",
"K  c #F9F826",
"L  c #F6F52D",
"P  c #FBFA32",
"I  c #F5F33D",
"U  c #F8F738",
"Y  c #FBF93C",
"T  c #838369",
"R  c #8D8D72",
"E  c #EFED47",
"W  c #F6F443",
"Q  c #FEFC40",
"!  c #EDEB5F",
"~  c #F0EE54",
"^  c #F0EE5C",
"/  c #F6F552",
"(  c #FCFA57",
")  c #F2F05F",
"_  c #FCFA5D",
"`  c #EDEB60",
"'  c #F0EE6D",
"]  c #F8F665",
"[  c #F2F06E",
"{  c #E8E57F",
"}  c #F6F477",
"|  c #F5F27D",
" . c #838384",
".. c #8B8B88",
"X. c #959595",
"o. c #9B9B9C",
"O. c #A4A4A1",
"+. c gray66",
"@. c gray69",
"#. c #BEBEB6",
"$. c #F2EF87",
"%. c #F3F184",
"&. c #EDEA94",
"*. c #E7E49E",
"=. c #E9E69D",
"-. c #ECE99B",
";. c #D9D6A9",
":. c #CBCBBD",
">. c #D8D5B3",
",. c #DFDBB7",
"<. c #DBD7BC",
"1. c #DEDABB",
"2. c #E0DDB4",
"3. c #E7E3A1",
"4. c #E9E6A3",
"5. c #E3E0AF",
"6. c #C6C6C6",
"7. c #CACACA",
"8. c #D2CECB",
"9. c #D5D1C6",
"0. c #D8D4C1",
"q. c #DDD9C5",
"w. c #D4D0C8",
"e. c #DAD6CB",
"r. c #DDD9CA",
"t. c #CECAD4",
"y. c #CECAD8",
"u. c #D0CCD4",
"i. c #D0CBD8",
"p. c #D3D3D3",
"a. c #DBDBDA",
"s. c #F6F6F6",
"d. c #FFFFFF",
/* pixels */
"w.w.w.w.w.w.w.w.w.w.w.w.9.t.i.q.e.y.u.w.w.w.w.w.w.w.w.w.w.w.w.w.",
"w.w.w.w.w.w.9.w.w.w.t.u.q.&.~ v G [ 4.e.u.u.w.w.<.w.w.w.w.w.w.w.",
"w.w.w.9.w.w.w.t.u.q.=.~ v a 2 = - 5 d F ) =.q.t.t.w.9.w.w.w.w.w.",
"w.w.w.9.8.t.e.-.^ n a 3 , 1 4 4 4 2 1 , 3 s n ~ &.1.t.t.9.w.w.w.",
"w.p.i.r.=.^ b s 3 - , 4 3 > = 6 & = 1 4 4 - = 4 a c E %.2.t.w.w.",
"w.>.` D s 4 > & - 6 3 O       > -       * 6 4 * & - 3 u k U ;.u.",
"i.` B s > % = 1 y &           . 4           1 6 > = & 3 d M { u.",
"y.| s 1 j a 1 4 O               1 &           > 3 2 g d = g 4.u.",
"t.-.j   O 4 l i                 & 2           o j g < . o N 1.w.",
"w.1.x % o o % 2 f 5 .             4       . 6 f , % . O - J w.w.",
"9.e.J = o = .     5 f 4           3 .   4 f 4     O *   2 Y u.w.",
"9.u.Y 1 o &         . 6 f 3       - y d y .       . = . 6 _ t.w.",
"w.t._ 5 O O             o 6 f , = g a O             & . a | t.w.",
"w.t.%.a O o   $ r           o s g - .         e #   = o j =.w.w.",
"9.t.-.g % %   @ d.8.@     .   , 4   &     X 6.d.@ % = % x ,.w.w.",
"9.w.1.x = & & o p.d.8         1 6   &     7 d.w.& o o > Z w.w.w.",
"9.9.e.H ,   . % :.d.q         1 5   %     0 d.#.    O 2 I u.w.w.",
"w.9.u.W 3 o     O.d.R O O o   1 6 . & O O T d.o.    O 6 _ t.w.w.",
"w.9.y.[ 6 O X    .d...  & & % 5 u & = O   t d.t   o O a } t.w.w.",
"9.9.y.$.a % o   e d.o.        1 6 O .     X.d.e   & O f &.8.w.w.",
"w.9.t.4.g . =   8 d.@.  .     1 6 O       +.d.8   & o m ,.8.w.w.",
"w.w.w.9.W u % o $ s.a.        1 u o       p.s.@ O & j ' w.w.w.w.",
"w.w.w.w.w._ f =   ; o.X       , a .     . o.: o , z &.t.9.w.w.w.",
"w.w.w.w.w.y.| z 1 .           1 a           o 4 C 4.t.9.w.w.w.w.",
"w.w.w.w.9.9.t.3.A 5 O o       , u     . % % y J ,.t.9.9.w.w.w.w.",
"w.w.w.w.w.w.9.t.<.P i % & = . 4 u . * & O p Q 9.w.w.w.w.w.w.w.w.",
"w.w.w.w.w.w.w.9.w.t.( f O O O 4 u O O O f _ t.8.9.w.w.w.w.w.w.w.",
"w.w.w.w.w.w.w.w.w.w.t.| z -   3 u   * z %.y.9.w.w.w.w.w.w.w.w.w.",
"w.w.w.w.w.w.w.w.w.9.w.t.*.S 1 1 6 = V =.t.9.9.w.w.w.w.w.w.w.w.w.",
"w.w.w.9.w.w.w.w.w.w.9.w.t.q.L j j Z 5.t.9.w.w.w.w.w.w.w.w.w.9.w.",
"w.w.w.w.w.w.w.w.w.w.w.w.w.w.w./ Y <.u.w.w.w.w.w.w.w.w.w.w.w.w.w.",
"w.w.w.w.w.w.w.w.w.w.w.w.w.w.w.t.8.w.w.w.w.w.w.w.w.w.w.w.w.w.w.w."
};
