/* XPM */
static char *render_sphere[] = {
/* columns rows colors chars-per-pixel */
"32 32 256 2 ",
"   c black",
".  c #010100",
"X  c #010200",
"o  c #020200",
"O  c #030300",
"+  c #030301",
"@  c #000002",
"#  c #000003",
"$  c #040400",
"%  c #050500",
"&  c #040401",
"*  c #050501",
"=  c #060600",
"-  c #070700",
";  c #060601",
":  c #000004",
">  c #000005",
",  c #080800",
"<  c #0A0A00",
"1  c #0C0C01",
"2  c #0F0F00",
"3  c #0F0F01",
"4  c #101000",
"5  c #111100",
"6  c #131300",
"7  c #151500",
"8  c #151600",
"9  c #1A1A00",
"0  c #1B1B00",
"q  c #1D1E00",
"w  c #1F1F00",
"e  c #232300",
"r  c #222201",
"t  c #202003",
"y  c #242400",
"u  c #252500",
"i  c #262600",
"p  c #262700",
"a  c #2D2D00",
"s  c #2D2E00",
"d  c #323200",
"f  c #333400",
"g  c #363600",
"h  c #373700",
"j  c #393900",
"k  c #3B3B00",
"l  c #3A3A01",
"z  c #3C3C00",
"x  c #3E3E00",
"c  c #404000",
"v  c #424200",
"b  c #444400",
"n  c #484800",
"m  c #4D4D00",
"M  c #4E4E00",
"N  c #535300",
"B  c #545400",
"V  c #5B5B00",
"C  c #5D5D00",
"Z  c #5F5F00",
"A  c #606000",
"S  c #616100",
"D  c #626200",
"F  c #636300",
"G  c #626203",
"H  c #636400",
"J  c #646400",
"K  c #656500",
"L  c #676800",
"P  c #6A6B00",
"I  c #6B6B03",
"U  c #747400",
"Y  c #747500",
"T  c #757600",
"R  c #767600",
"E  c #777700",
"W  c #797900",
"Q  c #797A00",
"!  c #7C7C00",
"~  c #7D7D00",
"^  c #7E7E00",
"/  c #808000",
"(  c #858500",
")  c #868600",
"_  c #878700",
"`  c #888800",
"'  c #898900",
"]  c #8A8A00",
"[  c #8C8C00",
"{  c #898905",
"}  c #919100",
"|  c #929200",
" . c #939300",
".. c #979700",
"X. c #989800",
"o. c #9D9D00",
"O. c #9A9A05",
"+. c #9E9E06",
"@. c #A1A100",
"#. c #A3A301",
"$. c #A4A400",
"%. c #A7A700",
"&. c #A0A007",
"*. c #A9A900",
"=. c #ACAC00",
"-. c #ADAD00",
";. c #AFAF00",
":. c #AEAE01",
">. c #AFB000",
",. c #B0B000",
"<. c #B2B200",
"1. c #B3B300",
"2. c #B7B607",
"3. c #B9B900",
"4. c #B9BA00",
"5. c #BBBB00",
"6. c #BDBD00",
"7. c #BEBE00",
"8. c #BAB909",
"9. c #A7A614",
"0. c #B0B012",
"q. c #B8B813",
"w. c #BBBA15",
"e. c #C0C000",
"r. c #C1C103",
"t. c #C7C701",
"y. c #CACA00",
"u. c #CBCB00",
"i. c #CDCE00",
"p. c #C4C40A",
"a. c #C1C01F",
"s. c #C2C21E",
"d. c #D0D01C",
"f. c #D3D21E",
"g. c #E3E300",
"h. c #DEDD3B",
"j. c #E0E021",
"k. c #E1E021",
"l. c #E3E23A",
"z. c #E4E23B",
"x. c #E1E03D",
"c. c #ECEA3F",
"v. c #ECEB40",
"b. c #F1F04A",
"n. c #EBE950",
"m. c #EBEA52",
"M. c #E6E45B",
"N. c #E8E65D",
"B. c #EAE858",
"V. c #F1EF57",
"C. c #F0EF58",
"Z. c #F1EF5A",
"A. c #F6F456",
"S. c #F6F459",
"D. c #F6F45E",
"F. c #EDEB67",
"G. c #F6F461",
"H. c #F2F067",
"J. c #F0EE71",
"K. c #F1EF73",
"L. c #F5F379",
"P. c #F5F27C",
"I. c #F2EF88",
"U. c #F1EE8A",
"Y. c #F2EF8D",
"T. c #F4F180",
"R. c #F4F182",
"E. c #EFEC96",
"W. c #EFEC97",
"Q. c #E4E09D",
"!. c #E4E19E",
"~. c #EBE89C",
"^. c #F2EF90",
"/. c #F1EE96",
"(. c #F1EE97",
"). c #F1ED99",
"_. c #F0ED9C",
"`. c #F0EC9D",
"'. c #E2DEB9",
"]. c #E5E2A9",
"[. c #EEEBA8",
"{. c #F2EFA0",
"}. c #E5E1B4",
"|. c #E5E1B5",
" X c #E7E3B4",
".X c #E6E2B6",
"XX c #EAE7B1",
"oX c #EAE6B3",
"OX c #EDE9B0",
"+X c #E5E1BF",
"@X c #CFCBCD",
"#X c #CECACE",
"$X c #CFCBCE",
"%X c #CECACF",
"&X c #D3CFC6",
"*X c #D3CFC7",
"=X c #D1CDC8",
"-X c #D1CDC9",
";X c #D3CFC8",
":X c #D2CEC9",
">X c #D0CCCA",
",X c #D1CDCA",
"<X c #D0CBCD",
"1X c #D0CCCD",
"2X c #D0CCCF",
"3X c #D4D0C5",
"4X c #D4D1C5",
"5X c #D5D1C5",
"6X c #D4D0C6",
"7X c #D4D1C6",
"8X c #D5D1C6",
"9X c #D4D0C7",
"0X c #DDD9C3",
"qX c #DDD9C4",
"wX c #DDD9C7",
"eX c #DEDAC6",
"rX c #D4D0C8",
"tX c #CEC9D1",
"yX c #CECAD1",
"uX c #CDC9D3",
"iX c #CEC9D2",
"pX c #CEC9D3",
"aX c #CECAD2",
"sX c #CFCBD2",
"dX c #CDC9D4",
"fX c #CEC9D4",
"gX c #CEC9D5",
"hX c #CECAD4",
"jX c #CFCBD5",
"kX c #CEC9D6",
"lX c #CFCAD6",
"zX c #CFCBD6",
"xX c #CFCBD7",
"cX c #D0CCD1",
"vX c #D1CCD1",
"bX c #D3CFD1",
"nX c #D2CED2",
"mX c #D0CBD5",
"MX c #D1CCD4",
"NX c #D1CDD4",
"BX c #D2CED4",
"VX c #D0CCD6",
"CX c #D1CDD6",
"ZX c #D0CCD7",
"AX c #D2CED6",
"SX c #D2CED7",
"DX c #D4D0D3",
"FX c #D6D1D3",
"GX c #D6D2D2",
"HX c #D7D3D2",
"JX c #D6D2D3",
"KX c #E3DFC1",
"LX c #E0DCC7",
"PX c #E0DCC8",
"IX c #E3E0C0",
"UX c #E6E2C0",
/* pixels */
"rXrXrXrXrXrXrXrXrXrXrXrXrXrX-XrXrX3X-XrXrXrXrXrXrXrXrXrXrXrXrXrX",
"rXrXrXrXrXrXrXrXrXrXrXrX8X8X3X3X8X8X8X8XrXrXrXrXrXrXrXrXrXrXrXrX",
"rXrXrXrXrXrXrXrX-XrXrX3X-XzXzXCXCXzXzX-X3X-XrX-XrXrXrXrXrXrXrXrX",
"rXrXrXrXrXrXrXrX3X3XzXGXXXY.H.B.B.K.).KXCX-X8X3XrXrXrXrXrXrXrXrX",
"rXrXrXrXrXrXrX8X-XCX/.l.+.Z z 3.g z E w.Z.XXzX3X8X-XrXrXrXrXrXrX",
"rXrXrXrXrXrX8X$X0Xb.` 8 # # # I S # # # g 8.P.CX3X8XrXrXrXrXrXrX",
"rXrXrXrXrX8X$X'.j.g # # # # # 8 :.# # # # # ! A.CX3XrXrXrXrXrXrX",
"rXrXrX-X8X-X0Xj.u # < # # # , # ( m # < # # # I G.CX8XrXrXrXrXrX",
"rXrXrXrX3XCXb.h # < # # # # # # z ` # # # # < # ` ^.zX3X-XrXrXrX",
"rXrXrX8XzX/._ # # # # # # # # # < :.< # # # # # # f.wX-X8XrXrXrX",
"rX8XrX8XGXl.8 # # # # # # # # # # +.g # # # # # # S R.zX8XrXrXrX",
"rX-X8X$XXX&.# < # # # # # # # , # ! A # # # # # # 8 l.GX3XrXrXrX",
"rXrX8XzXI.Z # # # # # # # # # # # S ! # # # # # # # 9.+X-XrXrXrX",
"rXrX8XzXF.u # # # # # # # # # , # B ` # , # # < # # t.].-X-XrXrX",
"rXrX8XCXC.! # # # # # # # # # # # m  .# # # # # w $.6.Q.CX3XrXrX",
"rXrX8XCXM.1.r.S # # # , # # # < # B  .# < # # B 7.u I ).zX8XrXrX",
"3X3X8XzXJ.a u 1.i.R w # # # # # # S ! # # z $. .8 # +. X$X3X3X-X",
"-X3X8XzXE.R # # a  .i.1.R v u w # ` $.S :.$.z # # # a.KX$X8XrXrX",
"rXrX8X$XIXq.# # # # # m ( :.6.6.1.g.1.S a # # < # p m.CX8XrXrXrX",
"rXrXrX8XzXV.g # # # # # # # # < # 1.u # # # # # # ` ).zX8XrXrXrX",
"rXrXrX8X$X X1.# # # # # < # # # 8 6.< # < # # # u v.CX3XrXrXrXrX",
"rXrXrXrX8XzXP.R # < # # # # # # v $.# # # # # # p. X-X8XrXrXrXrX",
"rXrXrXrX8X8XCXA.L # # < # # # # ! R # # < # # >.W.dX8X8XrXrXrXrX",
"rXrXrXrX-X8X3XGXD.` # # # # < # :.z # # # u p.E.zX3XrXrXrXrXrXrX",
"rXrXrXrXrXrX8X-XCXY.d.Z 3 # # < :.# # u ` c. XzX3X-XrXrXrXrXrXrX",
"rXrXrXrXrXrXrXrX8XzX0XP.h.0.! +.i.` s.m.W.CX$X8XrXrXrXrXrXrXrXrX",
"rXrXrXrXrXrXrXrXrX8X-XzXGX+X[.~.!.OX0XGXzX8X8XrXrXrXrXrXrXrXrXrX",
"rXrXrXrXrXrXrXrX-X8X8X8X3X-X$XzXCX$X$X3X8X3XrXrXrXrXrXrXrXrXrXrX",
"rXrXrXrXrXrXrXrXrXrXrXrX-X8X8X8X3X-XrXrXrXrXrXrXrXrXrXrXrXrXrXrX",
"rXrXrXrXrXrXrXrXrXrXrXrXrXrXrXrX3X3XrXrXrXrXrXrXrXrXrXrXrXrXrXrX",
"rXrXrXrXrXrXrXrXrXrXrXrXrXrXrXrXrXrXrXrXrXrXrXrXrXrXrXrXrXrXrXrX",
"rXrXrXrXrXrXrXrXrXrXrXrXrXrXrXrXrXrXrXrXrXrXrXrXrXrXrXrXrXrXrXrX"
};
